M48
;DRILL file {KiCad 0.201603171416+6624~43~ubuntu15.10.1-product} date fre 18 mar 2016 23:09:06 CET
;FORMAT={-:-/ absolute / metric / decimal}
FMAT,2
METRIC,TZ
T1C0.400
T2C1.001
T3C1.016
T4C1.097
%
G90
G05
M71
T1
X144.577Y-116.18
X145.275Y-111.95
T2
X139.306Y-110.16
X139.306Y-112.7
X139.306Y-115.24
X151.003Y-110.439
X151.003Y-112.979
X151.003Y-115.519
T3
X137.833Y-121.653
X137.833Y-124.193
X140.373Y-121.653
X140.373Y-124.193
X142.913Y-121.653
X142.913Y-124.193
X145.453Y-121.653
X145.453Y-124.193
X147.993Y-121.653
X147.993Y-124.193
X150.533Y-121.653
X150.533Y-124.193
X153.073Y-121.653
X153.073Y-124.193
T4
X139.154Y-102.997
X139.154Y-105.537
X144.056Y-98.971
X146.596Y-98.971
X151.447Y-102.984
X151.447Y-105.524
T0
M30
