M48
;DRILL file {KiCad no-vcs-found-7664~57~ubuntu16.10.1} date Wed Feb 22 20:40:52 2017
;FORMAT={3:3/ absolute / metric / keep zeros}
FMAT,2
METRIC,TZ
T1C0.400
T2C1.016
T3C1.097
%
G90
G05
M71
T1
X141529Y-119278
X142062Y-117958
X142583Y-111938
X143167Y-119748
X146749Y-116903
X148717Y-117958
X152616Y-112001
T2
X137833Y-121653
X137833Y-124193
X140373Y-121653
X140373Y-124193
X142913Y-121653
X142913Y-124193
X145453Y-121653
X145453Y-124193
X147993Y-121653
X147993Y-124193
X150533Y-121653
X150533Y-124193
X153073Y-121653
X153073Y-124193
T3
X139116Y-106871
X139116Y-109411
X144018Y-106871
X146558Y-106871
X151486Y-106858
X151486Y-109398
T0
M30
