M48
;DRILL file {KiCad no-vcs-found-7659~57~ubuntu16.10.1} date Sat Feb 18 23:42:44 2017
;FORMAT={-:-/ absolute / metric / decimal}
FMAT,2
METRIC,TZ
T1C0.400
T2C1.016
T3C1.097
%
G90
G05
M71
T1
X141.529Y-119.278
X142.062Y-117.958
X142.583Y-111.938
X143.167Y-119.748
X146.749Y-116.903
X148.717Y-117.958
X152.616Y-112.001
T2
X137.833Y-121.653
X137.833Y-124.193
X140.373Y-121.653
X140.373Y-124.193
X142.913Y-121.653
X142.913Y-124.193
X145.453Y-121.653
X145.453Y-124.193
X147.993Y-121.653
X147.993Y-124.193
X150.533Y-121.653
X150.533Y-124.193
X153.073Y-121.653
X153.073Y-124.193
T3
X139.116Y-106.87
X139.116Y-109.41
X144.018Y-106.87
X146.558Y-106.87
X151.486Y-106.858
X151.486Y-109.398
T0
M30
