G04 #@! TF.FileFunction,Copper,L2,Bot,Signal*
%FSLAX46Y46*%
G04 Gerber Fmt 4.6, Leading zero omitted, Abs format (unit mm)*
G04 Created by KiCad (PCBNEW 0.201603171416+6624~43~ubuntu15.10.1-product) date fre 18 mar 2016 23:09:09 CET*
%MOMM*%
G01*
G04 APERTURE LIST*
%ADD10C,0.100000*%
%ADD11O,1.727200X1.727200*%
%ADD12R,1.727200X1.727200*%
%ADD13O,2.499360X1.501140*%
%ADD14O,1.998980X1.998980*%
%ADD15R,1.998980X1.998980*%
%ADD16C,0.600000*%
%ADD17C,0.381000*%
%ADD18C,0.254000*%
G04 APERTURE END LIST*
D10*
D11*
X153073100Y-121653300D03*
X153073100Y-124193300D03*
X150533100Y-121653300D03*
X150533100Y-124193300D03*
X147993100Y-121653300D03*
X147993100Y-124193300D03*
D12*
X137833100Y-124193300D03*
D11*
X137833100Y-121653300D03*
X140373100Y-124193300D03*
X140373100Y-121653300D03*
X142913100Y-124193300D03*
X142913100Y-121653300D03*
X145453100Y-124193300D03*
X145453100Y-121653300D03*
D13*
X151003000Y-112979200D03*
X151003000Y-115519200D03*
X151003000Y-110439200D03*
X139306300Y-112699800D03*
X139306300Y-110159800D03*
X139306300Y-115239800D03*
D14*
X139153900Y-102997000D03*
D15*
X139153900Y-105537000D03*
D14*
X146596100Y-98971100D03*
D15*
X144056100Y-98971100D03*
D14*
X151447500Y-105524300D03*
D15*
X151447500Y-102984300D03*
D16*
X145275300Y-111950500D03*
X144576800Y-116179600D03*
D17*
X144576800Y-116179600D02*
X144576800Y-112649000D01*
X144576800Y-112649000D02*
X145275300Y-111950500D01*
D18*
G36*
X153808543Y-120347630D02*
X153646589Y-120239415D01*
X153073100Y-120125341D01*
X152499611Y-120239415D01*
X152013430Y-120564271D01*
X151803100Y-120879052D01*
X151592770Y-120564271D01*
X151106589Y-120239415D01*
X150533100Y-120125341D01*
X149959611Y-120239415D01*
X149473430Y-120564271D01*
X149263100Y-120879052D01*
X149052770Y-120564271D01*
X148566589Y-120239415D01*
X147993100Y-120125341D01*
X147419611Y-120239415D01*
X146933430Y-120564271D01*
X146723100Y-120879052D01*
X146512770Y-120564271D01*
X146026589Y-120239415D01*
X145453100Y-120125341D01*
X144879611Y-120239415D01*
X144393430Y-120564271D01*
X144183100Y-120879052D01*
X143972770Y-120564271D01*
X143486589Y-120239415D01*
X142913100Y-120125341D01*
X142339611Y-120239415D01*
X141853430Y-120564271D01*
X141637436Y-120887528D01*
X141579921Y-120764810D01*
X141148047Y-120370612D01*
X140732126Y-120198342D01*
X140500100Y-120319483D01*
X140500100Y-121526300D01*
X140520100Y-121526300D01*
X140520100Y-121780300D01*
X140500100Y-121780300D01*
X140500100Y-121800300D01*
X140246100Y-121800300D01*
X140246100Y-121780300D01*
X140226100Y-121780300D01*
X140226100Y-121526300D01*
X140246100Y-121526300D01*
X140246100Y-120319483D01*
X140014074Y-120198342D01*
X139598153Y-120370612D01*
X139166279Y-120764810D01*
X139108764Y-120887528D01*
X138892770Y-120564271D01*
X138406589Y-120239415D01*
X137833100Y-120125341D01*
X137259611Y-120239415D01*
X136773430Y-120564271D01*
X136727000Y-120633758D01*
X136727000Y-115581075D01*
X137464307Y-115581075D01*
X137478490Y-115652703D01*
X137737642Y-116129744D01*
X138159623Y-116471299D01*
X138680190Y-116625370D01*
X139179300Y-116625370D01*
X139179300Y-115366800D01*
X139433300Y-115366800D01*
X139433300Y-116625370D01*
X139932410Y-116625370D01*
X140452977Y-116471299D01*
X140584594Y-116364767D01*
X143641638Y-116364767D01*
X143783683Y-116708543D01*
X144046473Y-116971792D01*
X144390001Y-117114438D01*
X144761967Y-117114762D01*
X145105743Y-116972717D01*
X145368992Y-116709927D01*
X145511638Y-116366399D01*
X145511962Y-115994433D01*
X145402300Y-115729030D01*
X145402300Y-112990934D01*
X145414034Y-112979200D01*
X149081397Y-112979200D01*
X149186867Y-113509435D01*
X149487221Y-113958946D01*
X149921616Y-114249200D01*
X149487221Y-114539454D01*
X149186867Y-114988965D01*
X149081397Y-115519200D01*
X149186867Y-116049435D01*
X149487221Y-116498946D01*
X149936732Y-116799300D01*
X150466967Y-116904770D01*
X151539033Y-116904770D01*
X152069268Y-116799300D01*
X152518779Y-116498946D01*
X152819133Y-116049435D01*
X152924603Y-115519200D01*
X152819133Y-114988965D01*
X152518779Y-114539454D01*
X152084384Y-114249200D01*
X152518779Y-113958946D01*
X152819133Y-113509435D01*
X152924603Y-112979200D01*
X152819133Y-112448965D01*
X152518779Y-111999454D01*
X152069268Y-111699100D01*
X152059968Y-111697250D01*
X152149677Y-111670699D01*
X152571658Y-111329144D01*
X152830810Y-110852103D01*
X152844993Y-110780475D01*
X152722339Y-110566200D01*
X151130000Y-110566200D01*
X151130000Y-110586200D01*
X150876000Y-110586200D01*
X150876000Y-110566200D01*
X149283661Y-110566200D01*
X149161007Y-110780475D01*
X149175190Y-110852103D01*
X149434342Y-111329144D01*
X149856323Y-111670699D01*
X149946032Y-111697250D01*
X149936732Y-111699100D01*
X149487221Y-111999454D01*
X149186867Y-112448965D01*
X149081397Y-112979200D01*
X145414034Y-112979200D01*
X145540740Y-112852494D01*
X145804243Y-112743617D01*
X146067492Y-112480827D01*
X146210138Y-112137299D01*
X146210462Y-111765333D01*
X146068417Y-111421557D01*
X145805627Y-111158308D01*
X145462099Y-111015662D01*
X145090133Y-111015338D01*
X144746357Y-111157383D01*
X144483108Y-111420173D01*
X144372982Y-111685384D01*
X143993083Y-112065283D01*
X143814137Y-112333094D01*
X143814137Y-112333095D01*
X143751300Y-112649000D01*
X143751300Y-115729487D01*
X143641962Y-115992801D01*
X143641638Y-116364767D01*
X140584594Y-116364767D01*
X140874958Y-116129744D01*
X141134110Y-115652703D01*
X141148293Y-115581075D01*
X141025639Y-115366800D01*
X139433300Y-115366800D01*
X139179300Y-115366800D01*
X137586961Y-115366800D01*
X137464307Y-115581075D01*
X136727000Y-115581075D01*
X136727000Y-110159800D01*
X137384697Y-110159800D01*
X137490167Y-110690035D01*
X137790521Y-111139546D01*
X138224916Y-111429800D01*
X137790521Y-111720054D01*
X137490167Y-112169565D01*
X137384697Y-112699800D01*
X137490167Y-113230035D01*
X137790521Y-113679546D01*
X138240032Y-113979900D01*
X138249332Y-113981750D01*
X138159623Y-114008301D01*
X137737642Y-114349856D01*
X137478490Y-114826897D01*
X137464307Y-114898525D01*
X137586961Y-115112800D01*
X139179300Y-115112800D01*
X139179300Y-115092800D01*
X139433300Y-115092800D01*
X139433300Y-115112800D01*
X141025639Y-115112800D01*
X141148293Y-114898525D01*
X141134110Y-114826897D01*
X140874958Y-114349856D01*
X140452977Y-114008301D01*
X140363268Y-113981750D01*
X140372568Y-113979900D01*
X140822079Y-113679546D01*
X141122433Y-113230035D01*
X141227903Y-112699800D01*
X141122433Y-112169565D01*
X140822079Y-111720054D01*
X140387684Y-111429800D01*
X140822079Y-111139546D01*
X141122433Y-110690035D01*
X141227903Y-110159800D01*
X141215596Y-110097925D01*
X149161007Y-110097925D01*
X149283661Y-110312200D01*
X150876000Y-110312200D01*
X150876000Y-109053630D01*
X151130000Y-109053630D01*
X151130000Y-110312200D01*
X152722339Y-110312200D01*
X152844993Y-110097925D01*
X152830810Y-110026297D01*
X152571658Y-109549256D01*
X152149677Y-109207701D01*
X151629110Y-109053630D01*
X151130000Y-109053630D01*
X150876000Y-109053630D01*
X150376890Y-109053630D01*
X149856323Y-109207701D01*
X149434342Y-109549256D01*
X149175190Y-110026297D01*
X149161007Y-110097925D01*
X141215596Y-110097925D01*
X141122433Y-109629565D01*
X140822079Y-109180054D01*
X140372568Y-108879700D01*
X139842333Y-108774230D01*
X138770267Y-108774230D01*
X138240032Y-108879700D01*
X137790521Y-109180054D01*
X137490167Y-109629565D01*
X137384697Y-110159800D01*
X136727000Y-110159800D01*
X136727000Y-104537510D01*
X137506970Y-104537510D01*
X137506970Y-106536490D01*
X137556253Y-106784255D01*
X137696601Y-106994299D01*
X137906645Y-107134647D01*
X138154410Y-107183930D01*
X140153390Y-107183930D01*
X140401155Y-107134647D01*
X140611199Y-106994299D01*
X140751547Y-106784255D01*
X140800830Y-106536490D01*
X140800830Y-104537510D01*
X140751547Y-104289745D01*
X140611199Y-104079701D01*
X140451273Y-103972841D01*
X140663972Y-103654514D01*
X140788390Y-103029022D01*
X140788390Y-102964978D01*
X140663972Y-102339486D01*
X140426986Y-101984810D01*
X149800570Y-101984810D01*
X149800570Y-103983790D01*
X149849853Y-104231555D01*
X149990201Y-104441599D01*
X150150127Y-104548459D01*
X149937428Y-104866786D01*
X149813010Y-105492278D01*
X149813010Y-105556322D01*
X149937428Y-106181814D01*
X150291741Y-106712081D01*
X150822008Y-107066394D01*
X151447500Y-107190812D01*
X152072992Y-107066394D01*
X152603259Y-106712081D01*
X152957572Y-106181814D01*
X153081990Y-105556322D01*
X153081990Y-105492278D01*
X152957572Y-104866786D01*
X152744873Y-104548459D01*
X152904799Y-104441599D01*
X153045147Y-104231555D01*
X153094430Y-103983790D01*
X153094430Y-101984810D01*
X153045147Y-101737045D01*
X152904799Y-101527001D01*
X152694755Y-101386653D01*
X152446990Y-101337370D01*
X150448010Y-101337370D01*
X150200245Y-101386653D01*
X149990201Y-101527001D01*
X149849853Y-101737045D01*
X149800570Y-101984810D01*
X140426986Y-101984810D01*
X140309659Y-101809219D01*
X139779392Y-101454906D01*
X139153900Y-101330488D01*
X138528408Y-101454906D01*
X137998141Y-101809219D01*
X137643828Y-102339486D01*
X137519410Y-102964978D01*
X137519410Y-103029022D01*
X137643828Y-103654514D01*
X137856527Y-103972841D01*
X137696601Y-104079701D01*
X137556253Y-104289745D01*
X137506970Y-104537510D01*
X136727000Y-104537510D01*
X136727000Y-97971610D01*
X142409170Y-97971610D01*
X142409170Y-99970590D01*
X142458453Y-100218355D01*
X142598801Y-100428399D01*
X142808845Y-100568747D01*
X143056610Y-100618030D01*
X145055590Y-100618030D01*
X145303355Y-100568747D01*
X145513399Y-100428399D01*
X145617042Y-100273287D01*
X145636374Y-100294168D01*
X146215745Y-100560727D01*
X146469100Y-100441907D01*
X146469100Y-99098100D01*
X146723100Y-99098100D01*
X146723100Y-100441907D01*
X146976455Y-100560727D01*
X147555826Y-100294168D01*
X147989087Y-99826184D01*
X148185719Y-99351454D01*
X148066365Y-99098100D01*
X146723100Y-99098100D01*
X146469100Y-99098100D01*
X146449100Y-99098100D01*
X146449100Y-98844100D01*
X146469100Y-98844100D01*
X146469100Y-97500293D01*
X146723100Y-97500293D01*
X146723100Y-98844100D01*
X148066365Y-98844100D01*
X148185719Y-98590746D01*
X147989087Y-98116016D01*
X147555826Y-97648032D01*
X146976455Y-97381473D01*
X146723100Y-97500293D01*
X146469100Y-97500293D01*
X146215745Y-97381473D01*
X145636374Y-97648032D01*
X145617042Y-97668913D01*
X145513399Y-97513801D01*
X145303355Y-97373453D01*
X145055590Y-97324170D01*
X143056610Y-97324170D01*
X142808845Y-97373453D01*
X142598801Y-97513801D01*
X142458453Y-97723845D01*
X142409170Y-97971610D01*
X136727000Y-97971610D01*
X136727000Y-96595000D01*
X153798500Y-96595000D01*
X153808543Y-120347630D01*
X153808543Y-120347630D01*
G37*
X153808543Y-120347630D02*
X153646589Y-120239415D01*
X153073100Y-120125341D01*
X152499611Y-120239415D01*
X152013430Y-120564271D01*
X151803100Y-120879052D01*
X151592770Y-120564271D01*
X151106589Y-120239415D01*
X150533100Y-120125341D01*
X149959611Y-120239415D01*
X149473430Y-120564271D01*
X149263100Y-120879052D01*
X149052770Y-120564271D01*
X148566589Y-120239415D01*
X147993100Y-120125341D01*
X147419611Y-120239415D01*
X146933430Y-120564271D01*
X146723100Y-120879052D01*
X146512770Y-120564271D01*
X146026589Y-120239415D01*
X145453100Y-120125341D01*
X144879611Y-120239415D01*
X144393430Y-120564271D01*
X144183100Y-120879052D01*
X143972770Y-120564271D01*
X143486589Y-120239415D01*
X142913100Y-120125341D01*
X142339611Y-120239415D01*
X141853430Y-120564271D01*
X141637436Y-120887528D01*
X141579921Y-120764810D01*
X141148047Y-120370612D01*
X140732126Y-120198342D01*
X140500100Y-120319483D01*
X140500100Y-121526300D01*
X140520100Y-121526300D01*
X140520100Y-121780300D01*
X140500100Y-121780300D01*
X140500100Y-121800300D01*
X140246100Y-121800300D01*
X140246100Y-121780300D01*
X140226100Y-121780300D01*
X140226100Y-121526300D01*
X140246100Y-121526300D01*
X140246100Y-120319483D01*
X140014074Y-120198342D01*
X139598153Y-120370612D01*
X139166279Y-120764810D01*
X139108764Y-120887528D01*
X138892770Y-120564271D01*
X138406589Y-120239415D01*
X137833100Y-120125341D01*
X137259611Y-120239415D01*
X136773430Y-120564271D01*
X136727000Y-120633758D01*
X136727000Y-115581075D01*
X137464307Y-115581075D01*
X137478490Y-115652703D01*
X137737642Y-116129744D01*
X138159623Y-116471299D01*
X138680190Y-116625370D01*
X139179300Y-116625370D01*
X139179300Y-115366800D01*
X139433300Y-115366800D01*
X139433300Y-116625370D01*
X139932410Y-116625370D01*
X140452977Y-116471299D01*
X140584594Y-116364767D01*
X143641638Y-116364767D01*
X143783683Y-116708543D01*
X144046473Y-116971792D01*
X144390001Y-117114438D01*
X144761967Y-117114762D01*
X145105743Y-116972717D01*
X145368992Y-116709927D01*
X145511638Y-116366399D01*
X145511962Y-115994433D01*
X145402300Y-115729030D01*
X145402300Y-112990934D01*
X145414034Y-112979200D01*
X149081397Y-112979200D01*
X149186867Y-113509435D01*
X149487221Y-113958946D01*
X149921616Y-114249200D01*
X149487221Y-114539454D01*
X149186867Y-114988965D01*
X149081397Y-115519200D01*
X149186867Y-116049435D01*
X149487221Y-116498946D01*
X149936732Y-116799300D01*
X150466967Y-116904770D01*
X151539033Y-116904770D01*
X152069268Y-116799300D01*
X152518779Y-116498946D01*
X152819133Y-116049435D01*
X152924603Y-115519200D01*
X152819133Y-114988965D01*
X152518779Y-114539454D01*
X152084384Y-114249200D01*
X152518779Y-113958946D01*
X152819133Y-113509435D01*
X152924603Y-112979200D01*
X152819133Y-112448965D01*
X152518779Y-111999454D01*
X152069268Y-111699100D01*
X152059968Y-111697250D01*
X152149677Y-111670699D01*
X152571658Y-111329144D01*
X152830810Y-110852103D01*
X152844993Y-110780475D01*
X152722339Y-110566200D01*
X151130000Y-110566200D01*
X151130000Y-110586200D01*
X150876000Y-110586200D01*
X150876000Y-110566200D01*
X149283661Y-110566200D01*
X149161007Y-110780475D01*
X149175190Y-110852103D01*
X149434342Y-111329144D01*
X149856323Y-111670699D01*
X149946032Y-111697250D01*
X149936732Y-111699100D01*
X149487221Y-111999454D01*
X149186867Y-112448965D01*
X149081397Y-112979200D01*
X145414034Y-112979200D01*
X145540740Y-112852494D01*
X145804243Y-112743617D01*
X146067492Y-112480827D01*
X146210138Y-112137299D01*
X146210462Y-111765333D01*
X146068417Y-111421557D01*
X145805627Y-111158308D01*
X145462099Y-111015662D01*
X145090133Y-111015338D01*
X144746357Y-111157383D01*
X144483108Y-111420173D01*
X144372982Y-111685384D01*
X143993083Y-112065283D01*
X143814137Y-112333094D01*
X143814137Y-112333095D01*
X143751300Y-112649000D01*
X143751300Y-115729487D01*
X143641962Y-115992801D01*
X143641638Y-116364767D01*
X140584594Y-116364767D01*
X140874958Y-116129744D01*
X141134110Y-115652703D01*
X141148293Y-115581075D01*
X141025639Y-115366800D01*
X139433300Y-115366800D01*
X139179300Y-115366800D01*
X137586961Y-115366800D01*
X137464307Y-115581075D01*
X136727000Y-115581075D01*
X136727000Y-110159800D01*
X137384697Y-110159800D01*
X137490167Y-110690035D01*
X137790521Y-111139546D01*
X138224916Y-111429800D01*
X137790521Y-111720054D01*
X137490167Y-112169565D01*
X137384697Y-112699800D01*
X137490167Y-113230035D01*
X137790521Y-113679546D01*
X138240032Y-113979900D01*
X138249332Y-113981750D01*
X138159623Y-114008301D01*
X137737642Y-114349856D01*
X137478490Y-114826897D01*
X137464307Y-114898525D01*
X137586961Y-115112800D01*
X139179300Y-115112800D01*
X139179300Y-115092800D01*
X139433300Y-115092800D01*
X139433300Y-115112800D01*
X141025639Y-115112800D01*
X141148293Y-114898525D01*
X141134110Y-114826897D01*
X140874958Y-114349856D01*
X140452977Y-114008301D01*
X140363268Y-113981750D01*
X140372568Y-113979900D01*
X140822079Y-113679546D01*
X141122433Y-113230035D01*
X141227903Y-112699800D01*
X141122433Y-112169565D01*
X140822079Y-111720054D01*
X140387684Y-111429800D01*
X140822079Y-111139546D01*
X141122433Y-110690035D01*
X141227903Y-110159800D01*
X141215596Y-110097925D01*
X149161007Y-110097925D01*
X149283661Y-110312200D01*
X150876000Y-110312200D01*
X150876000Y-109053630D01*
X151130000Y-109053630D01*
X151130000Y-110312200D01*
X152722339Y-110312200D01*
X152844993Y-110097925D01*
X152830810Y-110026297D01*
X152571658Y-109549256D01*
X152149677Y-109207701D01*
X151629110Y-109053630D01*
X151130000Y-109053630D01*
X150876000Y-109053630D01*
X150376890Y-109053630D01*
X149856323Y-109207701D01*
X149434342Y-109549256D01*
X149175190Y-110026297D01*
X149161007Y-110097925D01*
X141215596Y-110097925D01*
X141122433Y-109629565D01*
X140822079Y-109180054D01*
X140372568Y-108879700D01*
X139842333Y-108774230D01*
X138770267Y-108774230D01*
X138240032Y-108879700D01*
X137790521Y-109180054D01*
X137490167Y-109629565D01*
X137384697Y-110159800D01*
X136727000Y-110159800D01*
X136727000Y-104537510D01*
X137506970Y-104537510D01*
X137506970Y-106536490D01*
X137556253Y-106784255D01*
X137696601Y-106994299D01*
X137906645Y-107134647D01*
X138154410Y-107183930D01*
X140153390Y-107183930D01*
X140401155Y-107134647D01*
X140611199Y-106994299D01*
X140751547Y-106784255D01*
X140800830Y-106536490D01*
X140800830Y-104537510D01*
X140751547Y-104289745D01*
X140611199Y-104079701D01*
X140451273Y-103972841D01*
X140663972Y-103654514D01*
X140788390Y-103029022D01*
X140788390Y-102964978D01*
X140663972Y-102339486D01*
X140426986Y-101984810D01*
X149800570Y-101984810D01*
X149800570Y-103983790D01*
X149849853Y-104231555D01*
X149990201Y-104441599D01*
X150150127Y-104548459D01*
X149937428Y-104866786D01*
X149813010Y-105492278D01*
X149813010Y-105556322D01*
X149937428Y-106181814D01*
X150291741Y-106712081D01*
X150822008Y-107066394D01*
X151447500Y-107190812D01*
X152072992Y-107066394D01*
X152603259Y-106712081D01*
X152957572Y-106181814D01*
X153081990Y-105556322D01*
X153081990Y-105492278D01*
X152957572Y-104866786D01*
X152744873Y-104548459D01*
X152904799Y-104441599D01*
X153045147Y-104231555D01*
X153094430Y-103983790D01*
X153094430Y-101984810D01*
X153045147Y-101737045D01*
X152904799Y-101527001D01*
X152694755Y-101386653D01*
X152446990Y-101337370D01*
X150448010Y-101337370D01*
X150200245Y-101386653D01*
X149990201Y-101527001D01*
X149849853Y-101737045D01*
X149800570Y-101984810D01*
X140426986Y-101984810D01*
X140309659Y-101809219D01*
X139779392Y-101454906D01*
X139153900Y-101330488D01*
X138528408Y-101454906D01*
X137998141Y-101809219D01*
X137643828Y-102339486D01*
X137519410Y-102964978D01*
X137519410Y-103029022D01*
X137643828Y-103654514D01*
X137856527Y-103972841D01*
X137696601Y-104079701D01*
X137556253Y-104289745D01*
X137506970Y-104537510D01*
X136727000Y-104537510D01*
X136727000Y-97971610D01*
X142409170Y-97971610D01*
X142409170Y-99970590D01*
X142458453Y-100218355D01*
X142598801Y-100428399D01*
X142808845Y-100568747D01*
X143056610Y-100618030D01*
X145055590Y-100618030D01*
X145303355Y-100568747D01*
X145513399Y-100428399D01*
X145617042Y-100273287D01*
X145636374Y-100294168D01*
X146215745Y-100560727D01*
X146469100Y-100441907D01*
X146469100Y-99098100D01*
X146723100Y-99098100D01*
X146723100Y-100441907D01*
X146976455Y-100560727D01*
X147555826Y-100294168D01*
X147989087Y-99826184D01*
X148185719Y-99351454D01*
X148066365Y-99098100D01*
X146723100Y-99098100D01*
X146469100Y-99098100D01*
X146449100Y-99098100D01*
X146449100Y-98844100D01*
X146469100Y-98844100D01*
X146469100Y-97500293D01*
X146723100Y-97500293D01*
X146723100Y-98844100D01*
X148066365Y-98844100D01*
X148185719Y-98590746D01*
X147989087Y-98116016D01*
X147555826Y-97648032D01*
X146976455Y-97381473D01*
X146723100Y-97500293D01*
X146469100Y-97500293D01*
X146215745Y-97381473D01*
X145636374Y-97648032D01*
X145617042Y-97668913D01*
X145513399Y-97513801D01*
X145303355Y-97373453D01*
X145055590Y-97324170D01*
X143056610Y-97324170D01*
X142808845Y-97373453D01*
X142598801Y-97513801D01*
X142458453Y-97723845D01*
X142409170Y-97971610D01*
X136727000Y-97971610D01*
X136727000Y-96595000D01*
X153798500Y-96595000D01*
X153808543Y-120347630D01*
M02*
