G04 #@! TF.GenerationSoftware,KiCad,Pcbnew,no-vcs-found-7659~57~ubuntu16.10.1*
G04 #@! TF.CreationDate,2017-02-18T23:42:41+01:00*
G04 #@! TF.ProjectId,MysXLedDimmer,4D7973584C656444696D6D65722E6B69,rev?*
G04 #@! TF.FileFunction,Copper,L1,Top,Signal*
G04 #@! TF.FilePolarity,Positive*
%FSLAX46Y46*%
G04 Gerber Fmt 4.6, Leading zero omitted, Abs format (unit mm)*
G04 Created by KiCad (PCBNEW no-vcs-found-7659~57~ubuntu16.10.1) date Sat Feb 18 23:42:41 2017*
%MOMM*%
%LPD*%
G01*
G04 APERTURE LIST*
%ADD10C,0.100000*%
%ADD11R,1.500000X1.300000*%
%ADD12R,1.500000X1.250000*%
%ADD13R,1.800860X0.800100*%
%ADD14O,1.727200X1.727200*%
%ADD15R,1.727200X1.727200*%
%ADD16O,1.998980X1.998980*%
%ADD17R,1.998980X1.998980*%
%ADD18C,0.600000*%
%ADD19C,0.250000*%
%ADD20C,0.400000*%
%ADD21C,0.254000*%
G04 APERTURE END LIST*
D10*
D11*
X138019800Y-117970300D03*
X140719800Y-117970300D03*
X152581600Y-117995700D03*
X149881600Y-117995700D03*
D12*
X146741200Y-117970300D03*
X144241200Y-117970300D03*
D11*
X152568900Y-115735100D03*
X149868900Y-115735100D03*
X140719800Y-115722400D03*
X138019800Y-115722400D03*
D12*
X144241200Y-115697000D03*
X146741200Y-115697000D03*
D13*
X138211560Y-112877600D03*
X141213840Y-111927600D03*
X141213840Y-113827600D03*
D14*
X145453100Y-121653300D03*
X145453100Y-124193300D03*
X142913100Y-121653300D03*
X142913100Y-124193300D03*
X140373100Y-121653300D03*
X140373100Y-124193300D03*
X137833100Y-121653300D03*
D15*
X137833100Y-124193300D03*
D14*
X147993100Y-124193300D03*
X147993100Y-121653300D03*
X150533100Y-124193300D03*
X150533100Y-121653300D03*
X153073100Y-124193300D03*
X153073100Y-121653300D03*
D16*
X139115800Y-109410500D03*
D17*
X139115800Y-106870500D03*
D16*
X146558000Y-106870500D03*
D17*
X144018000Y-106870500D03*
D16*
X151485600Y-109397800D03*
D17*
X151485600Y-106857800D03*
D13*
X151196040Y-113903800D03*
X151196040Y-112003800D03*
X148193760Y-112953800D03*
D18*
X143167100Y-119748300D03*
X141528800Y-119278400D03*
X146748500Y-116903500D03*
X148717000Y-117957600D03*
X142062200Y-117957600D03*
X142582900Y-111937800D03*
X152615900Y-112001300D03*
D19*
X152568900Y-115735100D02*
X152568900Y-117983000D01*
X152568900Y-117983000D02*
X152581600Y-117995700D01*
X150533100Y-121653300D02*
X152581600Y-119604800D01*
X152581600Y-119604800D02*
X152581600Y-117995700D01*
X151003000Y-121183400D02*
X150533100Y-121653300D01*
X143167100Y-119748300D02*
X144264499Y-120845699D01*
X144264499Y-120845699D02*
X144264499Y-122223829D01*
X149344499Y-123004699D02*
X149669501Y-123329701D01*
X144264499Y-122223829D02*
X145045369Y-123004699D01*
X145045369Y-123004699D02*
X149344499Y-123004699D01*
X149669501Y-123329701D02*
X150533100Y-124193300D01*
X138119800Y-117970300D02*
X139427900Y-119278400D01*
X139427900Y-119278400D02*
X141528800Y-119278400D01*
X138019800Y-115722400D02*
X138019800Y-117970300D01*
X138019800Y-117970300D02*
X138119800Y-117970300D01*
D20*
X144241200Y-108521500D02*
X144241200Y-107093700D01*
X144241200Y-115697000D02*
X144241200Y-108521500D01*
X144241200Y-108521500D02*
X148422410Y-108521500D01*
X148422410Y-108521500D02*
X150086110Y-106857800D01*
X150086110Y-106857800D02*
X151485600Y-106857800D01*
X144018000Y-106870500D02*
X139115800Y-106870500D01*
X142884098Y-118995300D02*
X143091200Y-118995300D01*
X144116200Y-117970300D02*
X144241200Y-117970300D01*
X141649499Y-120229899D02*
X142884098Y-118995300D01*
X141649499Y-122247031D02*
X141649499Y-120229899D01*
X140979629Y-122916901D02*
X141649499Y-122247031D01*
X143091200Y-118995300D02*
X144116200Y-117970300D01*
X137833100Y-122929700D02*
X137845899Y-122916901D01*
X137833100Y-124193300D02*
X137833100Y-122929700D01*
X137845899Y-122916901D02*
X140979629Y-122916901D01*
X144241200Y-107093700D02*
X144018000Y-106870500D01*
X144241200Y-115697000D02*
X144241200Y-117970300D01*
X146741200Y-115697000D02*
X146741200Y-116896200D01*
X146741200Y-116896200D02*
X146748500Y-116903500D01*
X146741200Y-117970300D02*
X146741200Y-116910800D01*
X146741200Y-116910800D02*
X146748500Y-116903500D01*
X149881600Y-117995700D02*
X148755100Y-117995700D01*
X148755100Y-117995700D02*
X148717000Y-117957600D01*
X140719800Y-117970300D02*
X142049500Y-117970300D01*
X142049500Y-117970300D02*
X142062200Y-117957600D01*
X141213840Y-111927600D02*
X142572700Y-111927600D01*
X142572700Y-111927600D02*
X142582900Y-111937800D01*
X151196040Y-112003800D02*
X152613400Y-112003800D01*
X152613400Y-112003800D02*
X152615900Y-112001300D01*
X148193760Y-112953800D02*
X148193760Y-112153750D01*
X148193760Y-112153750D02*
X150949710Y-109397800D01*
X150949710Y-109397800D02*
X151485600Y-109397800D01*
X138211560Y-112877600D02*
X138211560Y-110314740D01*
X138211560Y-110314740D02*
X139115800Y-109410500D01*
D19*
X149868900Y-115735100D02*
X149868900Y-115230940D01*
X149868900Y-115230940D02*
X151196040Y-113903800D01*
X141213840Y-113827600D02*
X141213840Y-115228360D01*
X141213840Y-115228360D02*
X140719800Y-115722400D01*
X140719800Y-115722400D02*
X140619800Y-115722400D01*
D21*
G36*
X137481310Y-105744701D02*
X137481310Y-106584750D01*
X137640060Y-106743500D01*
X138988800Y-106743500D01*
X138988800Y-106723500D01*
X139242800Y-106723500D01*
X139242800Y-106743500D01*
X140591540Y-106743500D01*
X140750290Y-106584750D01*
X140750290Y-105744701D01*
X140663760Y-105535800D01*
X142470039Y-105535800D01*
X142383510Y-105744700D01*
X142383510Y-106584750D01*
X142542260Y-106743500D01*
X143891000Y-106743500D01*
X143891000Y-106723500D01*
X144145000Y-106723500D01*
X144145000Y-106743500D01*
X144165000Y-106743500D01*
X144165000Y-106997500D01*
X144145000Y-106997500D01*
X144145000Y-108346240D01*
X144303750Y-108504990D01*
X145143799Y-108504990D01*
X145377188Y-108408317D01*
X145555817Y-108229689D01*
X145581582Y-108167487D01*
X145900486Y-108380572D01*
X146525978Y-108504990D01*
X146590022Y-108504990D01*
X147215514Y-108380572D01*
X147745781Y-108026259D01*
X148100094Y-107495992D01*
X148224512Y-106870500D01*
X148100094Y-106245008D01*
X147745781Y-105714741D01*
X147477977Y-105535800D01*
X149932379Y-105535800D01*
X149851110Y-105732001D01*
X149851110Y-106572050D01*
X150009860Y-106730800D01*
X151358600Y-106730800D01*
X151358600Y-106710800D01*
X151612600Y-106710800D01*
X151612600Y-106730800D01*
X152961340Y-106730800D01*
X153120090Y-106572050D01*
X153120090Y-105732001D01*
X153038821Y-105535800D01*
X153798200Y-105535800D01*
X153798200Y-110807500D01*
X152309234Y-110807500D01*
X152641359Y-110585581D01*
X152995672Y-110055314D01*
X153120090Y-109429822D01*
X153120090Y-109365778D01*
X152995672Y-108740286D01*
X152782587Y-108421382D01*
X152844789Y-108395617D01*
X153023417Y-108216988D01*
X153120090Y-107983599D01*
X153120090Y-107143550D01*
X152961340Y-106984800D01*
X151612600Y-106984800D01*
X151612600Y-107004800D01*
X151358600Y-107004800D01*
X151358600Y-106984800D01*
X150009860Y-106984800D01*
X149851110Y-107143550D01*
X149851110Y-107983599D01*
X149947783Y-108216988D01*
X150126411Y-108395617D01*
X150188613Y-108421382D01*
X149975528Y-108740286D01*
X149863586Y-109303056D01*
X148359142Y-110807500D01*
X139958441Y-110807500D01*
X140271559Y-110598281D01*
X140625872Y-110068014D01*
X140750290Y-109442522D01*
X140750290Y-109378478D01*
X140625872Y-108752986D01*
X140412787Y-108434082D01*
X140474989Y-108408317D01*
X140653617Y-108229688D01*
X140750290Y-107996299D01*
X140750290Y-107156250D01*
X142383510Y-107156250D01*
X142383510Y-107996300D01*
X142480183Y-108229689D01*
X142658812Y-108408317D01*
X142892201Y-108504990D01*
X143732250Y-108504990D01*
X143891000Y-108346240D01*
X143891000Y-106997500D01*
X142542260Y-106997500D01*
X142383510Y-107156250D01*
X140750290Y-107156250D01*
X140591540Y-106997500D01*
X139242800Y-106997500D01*
X139242800Y-107017500D01*
X138988800Y-107017500D01*
X138988800Y-106997500D01*
X137640060Y-106997500D01*
X137481310Y-107156250D01*
X137481310Y-107996299D01*
X137577983Y-108229688D01*
X137756611Y-108408317D01*
X137818813Y-108434082D01*
X137605728Y-108752986D01*
X137481310Y-109378478D01*
X137481310Y-109442522D01*
X137556576Y-109820911D01*
X137440121Y-109995199D01*
X137376560Y-110314740D01*
X137376560Y-110807500D01*
X136727000Y-110807500D01*
X136727000Y-105535800D01*
X137567840Y-105535800D01*
X137481310Y-105744701D01*
X137481310Y-105744701D01*
G37*
X137481310Y-105744701D02*
X137481310Y-106584750D01*
X137640060Y-106743500D01*
X138988800Y-106743500D01*
X138988800Y-106723500D01*
X139242800Y-106723500D01*
X139242800Y-106743500D01*
X140591540Y-106743500D01*
X140750290Y-106584750D01*
X140750290Y-105744701D01*
X140663760Y-105535800D01*
X142470039Y-105535800D01*
X142383510Y-105744700D01*
X142383510Y-106584750D01*
X142542260Y-106743500D01*
X143891000Y-106743500D01*
X143891000Y-106723500D01*
X144145000Y-106723500D01*
X144145000Y-106743500D01*
X144165000Y-106743500D01*
X144165000Y-106997500D01*
X144145000Y-106997500D01*
X144145000Y-108346240D01*
X144303750Y-108504990D01*
X145143799Y-108504990D01*
X145377188Y-108408317D01*
X145555817Y-108229689D01*
X145581582Y-108167487D01*
X145900486Y-108380572D01*
X146525978Y-108504990D01*
X146590022Y-108504990D01*
X147215514Y-108380572D01*
X147745781Y-108026259D01*
X148100094Y-107495992D01*
X148224512Y-106870500D01*
X148100094Y-106245008D01*
X147745781Y-105714741D01*
X147477977Y-105535800D01*
X149932379Y-105535800D01*
X149851110Y-105732001D01*
X149851110Y-106572050D01*
X150009860Y-106730800D01*
X151358600Y-106730800D01*
X151358600Y-106710800D01*
X151612600Y-106710800D01*
X151612600Y-106730800D01*
X152961340Y-106730800D01*
X153120090Y-106572050D01*
X153120090Y-105732001D01*
X153038821Y-105535800D01*
X153798200Y-105535800D01*
X153798200Y-110807500D01*
X152309234Y-110807500D01*
X152641359Y-110585581D01*
X152995672Y-110055314D01*
X153120090Y-109429822D01*
X153120090Y-109365778D01*
X152995672Y-108740286D01*
X152782587Y-108421382D01*
X152844789Y-108395617D01*
X153023417Y-108216988D01*
X153120090Y-107983599D01*
X153120090Y-107143550D01*
X152961340Y-106984800D01*
X151612600Y-106984800D01*
X151612600Y-107004800D01*
X151358600Y-107004800D01*
X151358600Y-106984800D01*
X150009860Y-106984800D01*
X149851110Y-107143550D01*
X149851110Y-107983599D01*
X149947783Y-108216988D01*
X150126411Y-108395617D01*
X150188613Y-108421382D01*
X149975528Y-108740286D01*
X149863586Y-109303056D01*
X148359142Y-110807500D01*
X139958441Y-110807500D01*
X140271559Y-110598281D01*
X140625872Y-110068014D01*
X140750290Y-109442522D01*
X140750290Y-109378478D01*
X140625872Y-108752986D01*
X140412787Y-108434082D01*
X140474989Y-108408317D01*
X140653617Y-108229688D01*
X140750290Y-107996299D01*
X140750290Y-107156250D01*
X142383510Y-107156250D01*
X142383510Y-107996300D01*
X142480183Y-108229689D01*
X142658812Y-108408317D01*
X142892201Y-108504990D01*
X143732250Y-108504990D01*
X143891000Y-108346240D01*
X143891000Y-106997500D01*
X142542260Y-106997500D01*
X142383510Y-107156250D01*
X140750290Y-107156250D01*
X140591540Y-106997500D01*
X139242800Y-106997500D01*
X139242800Y-107017500D01*
X138988800Y-107017500D01*
X138988800Y-106997500D01*
X137640060Y-106997500D01*
X137481310Y-107156250D01*
X137481310Y-107996299D01*
X137577983Y-108229688D01*
X137756611Y-108408317D01*
X137818813Y-108434082D01*
X137605728Y-108752986D01*
X137481310Y-109378478D01*
X137481310Y-109442522D01*
X137556576Y-109820911D01*
X137440121Y-109995199D01*
X137376560Y-110314740D01*
X137376560Y-110807500D01*
X136727000Y-110807500D01*
X136727000Y-105535800D01*
X137567840Y-105535800D01*
X137481310Y-105744701D01*
M02*
