G04 #@! TF.FileFunction,Legend,Top*
%FSLAX46Y46*%
G04 Gerber Fmt 4.6, Leading zero omitted, Abs format (unit mm)*
G04 Created by KiCad (PCBNEW 0.201603171416+6624~43~ubuntu15.10.1-product) date fre 18 mar 2016 23:09:09 CET*
%MOMM*%
G01*
G04 APERTURE LIST*
%ADD10C,0.100000*%
%ADD11C,0.150000*%
%ADD12C,0.254000*%
G04 APERTURE END LIST*
D10*
D11*
X142609600Y-113198200D02*
X142609600Y-111998200D01*
X144359600Y-111998200D02*
X144359600Y-113198200D01*
X139103100Y-125463300D02*
X154343100Y-125463300D01*
X154343100Y-125463300D02*
X154343100Y-120383300D01*
X154343100Y-120383300D02*
X136563100Y-120383300D01*
X136563100Y-120383300D02*
X136563100Y-122923300D01*
X136283100Y-124193300D02*
X136283100Y-125743300D01*
X136563100Y-122923300D02*
X139103100Y-122923300D01*
X139103100Y-122923300D02*
X139103100Y-125463300D01*
X136283100Y-125743300D02*
X137833100Y-125743300D01*
X147955000Y-114503200D02*
X149098000Y-114503200D01*
X147955000Y-111455200D02*
X149098000Y-111455200D01*
X149098000Y-107645200D02*
X152781000Y-107645200D01*
X152781000Y-107645200D02*
X152781000Y-118313200D01*
X152781000Y-118313200D02*
X149098000Y-118313200D01*
X147955000Y-107645200D02*
X149098000Y-107645200D01*
X149098000Y-107645200D02*
X149098000Y-118313200D01*
X149098000Y-118313200D02*
X147955000Y-118313200D01*
X147955000Y-112979200D02*
X147955000Y-118313200D01*
X147955000Y-112979200D02*
X147955000Y-107645200D01*
X142354300Y-111175800D02*
X141211300Y-111175800D01*
X142354300Y-114223800D02*
X141211300Y-114223800D01*
X141211300Y-118033800D02*
X137528300Y-118033800D01*
X137528300Y-118033800D02*
X137528300Y-107365800D01*
X137528300Y-107365800D02*
X141211300Y-107365800D01*
X142354300Y-118033800D02*
X141211300Y-118033800D01*
X141211300Y-118033800D02*
X141211300Y-107365800D01*
X141211300Y-107365800D02*
X142354300Y-107365800D01*
X142354300Y-112699800D02*
X142354300Y-107365800D01*
X142354300Y-112699800D02*
X142354300Y-118033800D01*
D12*
X136552940Y-107066080D02*
X136552940Y-101467920D01*
X136055100Y-101666040D02*
X136552940Y-101666040D01*
X136552940Y-106867960D02*
X136055100Y-106867960D01*
X136055100Y-104267000D02*
X136552940Y-104267000D01*
X141853920Y-101467920D02*
X141853920Y-107066080D01*
X136055100Y-101467920D02*
X136055100Y-107066080D01*
X136055100Y-107066080D02*
X142252700Y-107066080D01*
X142252700Y-107066080D02*
X142252700Y-101467920D01*
X142252700Y-101467920D02*
X136055100Y-101467920D01*
X142527020Y-96370140D02*
X148125180Y-96370140D01*
X147927060Y-95872300D02*
X147927060Y-96370140D01*
X142725140Y-96370140D02*
X142725140Y-95872300D01*
X145326100Y-95872300D02*
X145326100Y-96370140D01*
X148125180Y-101671120D02*
X142527020Y-101671120D01*
X148125180Y-95872300D02*
X142527020Y-95872300D01*
X142527020Y-95872300D02*
X142527020Y-102069900D01*
X142527020Y-102069900D02*
X148125180Y-102069900D01*
X148125180Y-102069900D02*
X148125180Y-95872300D01*
X154048460Y-101455220D02*
X154048460Y-107053380D01*
X154546300Y-106855260D02*
X154048460Y-106855260D01*
X154048460Y-101653340D02*
X154546300Y-101653340D01*
X154546300Y-104254300D02*
X154048460Y-104254300D01*
X148747480Y-107053380D02*
X148747480Y-101455220D01*
X154546300Y-107053380D02*
X154546300Y-101455220D01*
X154546300Y-101455220D02*
X148348700Y-101455220D01*
X148348700Y-101455220D02*
X148348700Y-107053380D01*
X148348700Y-107053380D02*
X154546300Y-107053380D01*
D11*
X148525200Y-112099800D02*
X148525200Y-113299800D01*
X146775200Y-113299800D02*
X146775200Y-112099800D01*
X146036981Y-112764866D02*
X145560790Y-113098200D01*
X146036981Y-113336295D02*
X145036981Y-113336295D01*
X145036981Y-112955342D01*
X145084600Y-112860104D01*
X145132219Y-112812485D01*
X145227457Y-112764866D01*
X145370314Y-112764866D01*
X145465552Y-112812485D01*
X145513171Y-112860104D01*
X145560790Y-112955342D01*
X145560790Y-113336295D01*
X145132219Y-112383914D02*
X145084600Y-112336295D01*
X145036981Y-112241057D01*
X145036981Y-112002961D01*
X145084600Y-111907723D01*
X145132219Y-111860104D01*
X145227457Y-111812485D01*
X145322695Y-111812485D01*
X145465552Y-111860104D01*
X146036981Y-112431533D01*
X146036981Y-111812485D01*
X134983481Y-124931395D02*
X133983481Y-124931395D01*
X133983481Y-124550442D01*
X134031100Y-124455204D01*
X134078719Y-124407585D01*
X134173957Y-124359966D01*
X134316814Y-124359966D01*
X134412052Y-124407585D01*
X134459671Y-124455204D01*
X134507290Y-124550442D01*
X134507290Y-124931395D01*
X134983481Y-123407585D02*
X134983481Y-123979014D01*
X134983481Y-123693300D02*
X133983481Y-123693300D01*
X134126338Y-123788538D01*
X134221576Y-123883776D01*
X134269195Y-123979014D01*
X146470619Y-113074438D02*
X146423000Y-113169676D01*
X146327762Y-113264914D01*
X146184905Y-113407771D01*
X146137286Y-113503010D01*
X146137286Y-113598248D01*
X146375381Y-113550629D02*
X146327762Y-113645867D01*
X146232524Y-113741105D01*
X146042048Y-113788724D01*
X145708714Y-113788724D01*
X145518238Y-113741105D01*
X145423000Y-113645867D01*
X145375381Y-113550629D01*
X145375381Y-113360152D01*
X145423000Y-113264914D01*
X145518238Y-113169676D01*
X145708714Y-113122057D01*
X146042048Y-113122057D01*
X146232524Y-113169676D01*
X146327762Y-113264914D01*
X146375381Y-113360152D01*
X146375381Y-113550629D01*
X146375381Y-112169676D02*
X146375381Y-112741105D01*
X146375381Y-112455391D02*
X145375381Y-112455391D01*
X145518238Y-112550629D01*
X145613476Y-112645867D01*
X145661095Y-112741105D01*
X144933919Y-112795038D02*
X144886300Y-112890276D01*
X144791062Y-112985514D01*
X144648205Y-113128371D01*
X144600586Y-113223610D01*
X144600586Y-113318848D01*
X144838681Y-113271229D02*
X144791062Y-113366467D01*
X144695824Y-113461705D01*
X144505348Y-113509324D01*
X144172014Y-113509324D01*
X143981538Y-113461705D01*
X143886300Y-113366467D01*
X143838681Y-113271229D01*
X143838681Y-113080752D01*
X143886300Y-112985514D01*
X143981538Y-112890276D01*
X144172014Y-112842657D01*
X144505348Y-112842657D01*
X144695824Y-112890276D01*
X144791062Y-112985514D01*
X144838681Y-113080752D01*
X144838681Y-113271229D01*
X143933919Y-112461705D02*
X143886300Y-112414086D01*
X143838681Y-112318848D01*
X143838681Y-112080752D01*
X143886300Y-111985514D01*
X143933919Y-111937895D01*
X144029157Y-111890276D01*
X144124395Y-111890276D01*
X144267252Y-111937895D01*
X144838681Y-112509324D01*
X144838681Y-111890276D01*
X146002581Y-112866466D02*
X145526390Y-113199800D01*
X146002581Y-113437895D02*
X145002581Y-113437895D01*
X145002581Y-113056942D01*
X145050200Y-112961704D01*
X145097819Y-112914085D01*
X145193057Y-112866466D01*
X145335914Y-112866466D01*
X145431152Y-112914085D01*
X145478771Y-112961704D01*
X145526390Y-113056942D01*
X145526390Y-113437895D01*
X146002581Y-111914085D02*
X146002581Y-112485514D01*
X146002581Y-112199800D02*
X145002581Y-112199800D01*
X145145438Y-112295038D01*
X145240676Y-112390276D01*
X145288295Y-112485514D01*
M02*
